<?xml version="1.0" encoding="utf-8"?>
<!-- Generator: Adobe Illustrator 24.0.1, SVG Export Plug-In . SVG Version: 6.00 Build 0)  -->
<svg version="1.1" id="Layer_1" xmlns="http://www.w3.org/2000/svg" xmlns:xlink="http://www.w3.org/1999/xlink" x="0px" y="0px"
	 viewBox="0 0 1200 1000" style="enable-background:new 0 0 1200 1000;" xml:space="preserve">
<style type="text/css">
	.st0{fill:url(#SVGID_1_);}
	.st1{fill:#008F01;}
	.st2{fill:#FFFFFF;}
	.st3{fill:#043D08;}
	.st4{fill:none;}
	.st5{fill:#006837;}
	.st6{opacity:0.5;fill:#8CC63F;}
	.st7{fill:#88CD02;}
	.st8{fill:url(#SVGID_2_);}
	.st9{fill:url(#SVGID_3_);}
	.st10{fill:url(#SVGID_4_);}
	.st11{fill:#F9B522;}
	.st12{fill:#E6E7E9;}
	.st13{fill:url(#SVGID_5_);}
	.st14{fill:url(#SVGID_6_);}
	.st15{fill:url(#SVGID_7_);}
	.st16{fill:url(#SVGID_8_);}
	.st17{fill:url(#SVGID_9_);}
	.st18{fill:url(#SVGID_10_);}
	.st19{fill:url(#SVGID_11_);}
	.st20{fill:url(#SVGID_12_);}
	.st21{fill:url(#SVGID_13_);}
	.st22{fill:url(#SVGID_14_);}
</style>
<rect width="1200" height="1000"/>
<g>
	<linearGradient id="SVGID_1_" gradientUnits="userSpaceOnUse" x1="601" y1="479.1609" x2="601" y2="315.7473">
		<stop  offset="0" style="stop-color:#000000;stop-opacity:0"/>
		<stop  offset="1" style="stop-color:#038404;stop-opacity:0.4"/>
	</linearGradient>
	<polygon class="st0" points="324.41,479.16 870.85,479.15 884.51,411.12 603.47,315.75 317.49,408.86 	"/>
	<polygon class="st1" points="446.42,325.51 462.1,329.88 430.18,340.73 425.94,342.17 278.98,392.1 293.66,479.87 192.51,479.87 
		284.28,470.9 270.08,388.19 	"/>
	<polygon class="st1" points="490.14,317.33 456.66,321.87 481.56,313.02 	"/>
	<path class="st1" d="M723.33,313.54L740,319.4c-2.94-0.22-5.87-0.43-8.8-0.64l-0.16-0.01l-0.16-0.01
		c-6.01-0.19-11.57-0.52-16.87-0.99l2.39-1.01L723.33,313.54z"/>
	<path class="st1" d="M904.43,479.87l15.66-87.77l-144.92-49.67l-6.88-2.36h-0.01l-12.15-4.16c0.06-0.03,0.13-0.07,0.2-0.1
		l12.96-6.12l161.89,56.87l-15.01,82.87l93.32,10.44H904.43z"/>
	<path class="st2" d="M445.48,342.16l46.54,4.37l-38.1,12.73l-8.34,2.79l-7.27,2.43l-24.19,8.09l-101.86,34.06l9.09,73.24h-22.76
		l-11.74-82.14l141.72-49.85h0.01l0.44-0.15h0.01l6.95-2.45l8.99-3.17h0.01l26.96-9.48c1.64,0.46,3.26,0.94,4.89,1.41
		c0.88,0.26,1.77,0.51,2.66,0.77l-12.98,2.72l-1.06,0.26c-0.55,0.14-1.1,0.27-1.65,0.39c-4.99,1.09-9.97,2.17-14.95,3.25
		L445.48,342.16z"/>
	<path class="st2" d="M915.15,395.69l-15,84.18h-21.86l14.35-71.45l-107.39-37.1h-0.01l-22.18-7.66l-6.63-2.29l-36.38-12.57
		l-9.72-3.36l9.04-0.84c-0.42-0.11-0.84-0.23-1.26-0.34c7.49-1.57,14.26-2.91,20.8-4.14l0.15-0.03l0.15-0.03
		c2.89-0.66,5.77-1.32,8.65-1.98l8.9,3.06l10.2,3.51l2.54,0.88h0.01l3.25,1.12L915.15,395.69z"/>
	<g>
		<polygon class="st3" points="463.93,646.44 457.36,652.99 444.05,646.44 		"/>
		<polygon class="st3" points="749.93,646.44 748.39,647.23 747.66,646.44 		"/>
		<line class="st4" x1="424.68" y1="632.3" x2="422.07" y2="635.64"/>
		<g>
			<path class="st3" d="M512.91,646.44l-12.79,26.78c-0.45,0.03-0.9,0.08-1.36,0.11l-23.85-11.72l10.1-15.17H512.91z"/>
			<path class="st5" d="M500.12,673.23l-0.3,0.63l-1.06-0.52C499.21,673.3,499.67,673.26,500.12,673.23z"/>
			<polygon class="st6" points="485.01,646.44 474.92,661.62 474.91,661.62 457.36,652.99 463.93,646.44 			"/>
			<path class="st5" d="M572.84,670.02v39.73l-39.11-19.23l3.02-19.54C548.23,670.48,560.29,670.14,572.84,670.02z"/>
			<path class="st3" d="M572.84,670.02v-23.58h-32.29l-3.8,24.54C548.23,670.48,560.29,670.14,572.84,670.02z"/>
			<path class="st7" d="M536.75,670.98l-3.02,19.54l-33.91-16.67l0.3-0.63C511.53,672.32,523.77,671.55,536.75,670.98z"/>
			<path class="st6" d="M536.75,670.98l3.8-24.54h-27.64l-12.79,26.79C511.53,672.32,523.77,671.55,536.75,670.98z"/>
			<path class="st3" d="M662.57,673.06l-12.72-26.62h-38.81l3.71,24.02C630.19,670.93,646.16,671.77,662.57,673.06z"/>
			<path class="st5" d="M669.56,687.69l-48.31,24.8l-6.5-42.04c15.43,0.47,31.41,1.31,47.82,2.6L669.56,687.69z"/>
			<polygon class="st3" points="704.55,646.44 718.88,662.38 698.56,672.81 681.01,646.44 			"/>
			<polygon class="st6" points="748.39,647.23 718.88,662.38 704.55,646.44 747.66,646.44 			"/>
			<path class="st6" d="M698.56,672.81l-5.99,3.08c-1.27-0.14-2.53-0.28-3.79-0.41c-2.52-0.27-5.05-0.52-7.56-0.77
				c-6.27-0.62-12.49-1.16-18.65-1.65l-12.72-26.61h31.16L698.56,672.81z"/>
			<path class="st7" d="M692.57,675.89l-23,11.8l-6.99-14.64c6.16,0.49,12.38,1.03,18.65,1.65c2.51,0.25,5.03,0.5,7.56,0.77
				C690.03,675.61,691.3,675.75,692.57,675.89z"/>
			<path class="st6" d="M614.75,670.46l-3.71-24.02h-38.2v23.58C586.27,669.89,600.27,670.01,614.75,670.46z"/>
			<path class="st7" d="M621.25,712.49l-20.96,10.76l-27.46-13.5v-39.73c13.43-0.13,27.43-0.01,41.91,0.43L621.25,712.49z"/>
		</g>
	</g>
	<path class="st2" d="M909.97,603.91l-52.92,26.62l-256.32,128.9l-259.01-128.9l-49.68-24.73c3.74-0.42,7.52-0.85,11.35-1.26
		l65.11,32.6l233.17,116.67l231.93-116.67l67.99-34.2C904.38,603.26,907.18,603.58,909.97,603.91z"/>
	<linearGradient id="SVGID_2_" gradientUnits="userSpaceOnUse" x1="332.7512" y1="678.3346" x2="869.2488" y2="678.3346">
		<stop  offset="0" style="stop-color:#01F500"/>
		<stop  offset="0.8212" style="stop-color:#00FF01"/>
	</linearGradient>
	<path class="st8" d="M869.25,611.86l-52.1,26.24L599.73,747.69L382.01,638.1l-49.26-24.79c7.25-0.71,14.63-1.39,22.14-2.06
		l77.25,37.96l167.59,82.38l160.51-82.38l78.41-40.23C848.82,609.85,859.01,610.82,869.25,611.86z"/>
	<g>
		<path class="st2" d="M215.57,545.13v30.95H193v-83.7h22.57v30.18h55.72v-30.18h22.57v83.7h-22.57v-30.95H215.57z"/>
		<path class="st2" d="M305.21,576.09l41.01-83.7h35.47l40.76,83.7h-25.02l-7.74-15.86h-51.59l-7.74,15.86H305.21z M381.56,543.46
			l-17.54-35.98l-17.67,35.98H381.56z"/>
		<path class="st2" d="M432.24,576.09v-83.7h39.98l25.02,53.78l25.15-53.78h39.72v83.7h-22.57v-70.16l-32.76,70.16h-19.22
			l-32.76-70.81v70.81H432.24z"/>
		<path class="st2" d="M573.08,576.09v-83.7h72.61c7.05,0,12.58,2.32,16.57,6.95c4,4.63,6,13.04,6,25.23
			c0,12.36-1.98,20.74-5.93,25.16c-3.96,4.42-9.5,6.63-16.64,6.63h-50.04v19.73H573.08z M595.65,513.66v21.41h41.01
			c2.41,0,4.51-1.03,6.32-3.08c1.8-2.05,2.71-4.53,2.71-7.44c0-2.99-0.9-5.55-2.71-7.69c-1.81-2.14-4.04-3.21-6.71-3.21H595.65z"/>
		<path class="st2" d="M737.52,576.09h-25.66v-61.13H676.9v-22.57h95.44v22.57h-34.82V576.09z"/>
		<path class="st2" d="M782.66,554.84v-41.21c0-5.92,2.19-10.94,6.58-15.07c4.38-4.12,9.71-6.18,15.99-6.18h61.91
			c6.19,0,11.5,2.08,15.93,6.25c4.43,4.16,6.64,9.17,6.64,15v40.82c0,5.93-2.21,11.01-6.64,15.26c-4.43,4.25-9.74,6.37-15.93,6.37
			h-61.91c-6.11,0-11.39-2.1-15.86-6.31C784.89,565.57,782.66,560.59,782.66,554.84z M814.9,554.81h42.3c2.66,0,4.99-0.94,6.96-2.83
			c1.98-1.89,2.97-4.16,2.97-6.81v-22.5c0-2.57-0.95-4.71-2.84-6.43c-1.89-1.71-4.26-2.57-7.09-2.57h-42.3
			c-2.75,0-5.05,0.88-6.9,2.64c-1.85,1.76-2.77,3.88-2.77,6.36v22.5c0,2.57,0.92,4.82,2.77,6.75
			C809.85,553.84,812.15,554.81,814.9,554.81z"/>
		<path class="st2" d="M901.95,576.09v-83.7h38.69l45.78,67.58v-67.58H1009v83.7h-39.08l-45.4-67.32v67.32H901.95z"/>
	</g>
	<linearGradient id="SVGID_3_" gradientUnits="userSpaceOnUse" x1="192.5" y1="613.2991" x2="1009.5" y2="613.2991">
		<stop  offset="0" style="stop-color:#01F500"/>
		<stop  offset="0.8212" style="stop-color:#00FF01"/>
	</linearGradient>
	<polygon class="st9" points="1009.5,638.3 192.5,638.3 222.5,613.3 192.5,588.3 1009.5,588.3 989.5,609.98 	"/>
	<g>
		<path d="M326.47,627.62v-31.51h8.5v24.23h22.09v7.28H326.47z"/>
		<path d="M360.55,627.62l15.44-31.51h13.35l15.34,31.51h-9.42l-2.91-5.97h-19.42l-2.91,5.97H360.55z M389.29,615.33l-6.6-13.55
			l-6.65,13.55H389.29z"/>
		<path d="M419.73,627.62l-12.14-31.51h8.59l10.05,26.07l7.04-26.07h11.41l7.04,25.93l9.95-25.93h8.59l-12.09,31.51h-13.25
			l-5.97-21.99l-5.92,21.99H419.73z"/>
		<path d="M474.4,627.62v-31.51h14.57l17.24,25.44v-25.44h8.5v31.51h-14.71l-17.09-25.34v25.34H474.4z"/>
		<path d="M537.86,617.52l8.5,0.24c0,0.97,0.23,1.81,0.7,2.5c0.47,0.7,1.04,1.04,1.72,1.04h11.65c1.17,0,2.16-0.3,2.99-0.9
			c0.83-0.6,1.24-1.32,1.24-2.16c0-0.78-0.29-1.44-0.87-1.99c-0.58-0.55-1.29-0.83-2.14-0.83l-15.29-0.53
			c-2.91,0-5.06-0.7-6.43-2.11c-1.38-1.4-2.06-3.24-2.06-5.5v-4.89c0-1.74,0.83-3.23,2.48-4.46c1.65-1.23,3.66-1.84,6.02-1.84h19.18
			c1.84,0,3.41,0.62,4.71,1.84c1.29,1.23,1.94,2.72,1.94,4.47v3.01h-8.5c0-0.91-0.28-1.63-0.83-2.18c-0.55-0.55-1.41-0.83-2.57-0.83
			h-11.65c-0.62,0-1.15,0.26-1.6,0.78c-0.45,0.52-0.68,1.15-0.68,1.89c0,0.94,0.09,1.61,0.27,2.02c0.18,0.4,0.69,0.61,1.53,0.61
			l16.51,0.53c2.59,0,4.65,0.66,6.19,1.97c1.54,1.31,2.31,3.67,2.31,7.06c0,4.05-0.87,6.78-2.62,8.21
			c-1.75,1.42-4.39,2.14-7.91,2.14h-16.27c-2.33,0-4.33-0.62-6-1.87c-1.67-1.25-2.5-2.73-2.5-4.44V617.52z"/>
		<path d="M577.28,619.62v-15.51c0-2.23,0.83-4.12,2.48-5.67s3.66-2.33,6.02-2.33h23.3c2.33,0,4.33,0.78,6,2.35s2.5,3.45,2.5,5.65
			v15.37c0,2.23-0.83,4.14-2.5,5.74s-3.67,2.4-6,2.4h-23.3c-2.3,0-4.29-0.79-5.97-2.38C578.12,623.66,577.28,621.78,577.28,619.62z
			 M589.42,619.61h15.92c1,0,1.88-0.35,2.62-1.06c0.74-0.71,1.12-1.57,1.12-2.57v-8.47c0-0.97-0.36-1.77-1.07-2.42
			c-0.71-0.64-1.6-0.97-2.67-0.97h-15.92c-1.04,0-1.9,0.33-2.6,0.99c-0.7,0.66-1.04,1.46-1.04,2.4v8.47c0,0.97,0.35,1.82,1.04,2.54
			C587.52,619.24,588.38,619.61,589.42,619.61z"/>
		<path d="M621.71,627.62v-31.51h8.5v24.23h22.09v7.28H621.71z"/>
		<path d="M655.64,620.34v-24.24h8.5v19.72c0,1.26,0.47,2.33,1.41,3.2c0.94,0.87,2.09,1.31,3.45,1.31h11.31
			c1.36,0,2.51-0.43,3.45-1.31c0.94-0.87,1.41-1.94,1.41-3.2v-19.72h8.5v24.24c0,2-0.83,3.72-2.48,5.14
			c-1.65,1.42-3.66,2.13-6.02,2.13h-21.02c-2.3,0-4.29-0.71-5.97-2.13C656.48,624.06,655.64,622.35,655.64,620.34z"/>
		<path d="M720.07,627.62h-9.66V604.6h-13.16v-8.5h35.93v8.5h-13.11V627.62z"/>
		<path d="M737.7,627.62v-31.51h8.5v31.51H737.7z"/>
		<path d="M750.66,619.62v-15.51c0-2.23,0.83-4.12,2.48-5.67s3.66-2.33,6.02-2.33h23.3c2.33,0,4.33,0.78,6,2.35s2.5,3.45,2.5,5.65
			v15.37c0,2.23-0.83,4.14-2.5,5.74s-3.67,2.4-6,2.4h-23.3c-2.3,0-4.29-0.79-5.97-2.38C751.5,623.66,750.66,621.78,750.66,619.62z
			 M762.8,619.61h15.92c1,0,1.88-0.35,2.62-1.06c0.74-0.71,1.12-1.57,1.12-2.57v-8.47c0-0.97-0.36-1.77-1.07-2.42
			c-0.71-0.64-1.6-0.97-2.67-0.97H762.8c-1.04,0-1.9,0.33-2.6,0.99c-0.7,0.66-1.04,1.46-1.04,2.4v8.47c0,0.97,0.35,1.82,1.04,2.54
			C760.89,619.24,761.76,619.61,762.8,619.61z"/>
		<path d="M795.57,627.62v-31.51h14.57l17.24,25.44v-25.44h8.5v31.51h-14.71l-17.09-25.34v25.34H795.57z"/>
		<path d="M839.85,617.52l8.5,0.24c0,0.97,0.23,1.81,0.7,2.5c0.47,0.7,1.04,1.04,1.72,1.04h11.65c1.17,0,2.16-0.3,2.99-0.9
			c0.83-0.6,1.24-1.32,1.24-2.16c0-0.78-0.29-1.44-0.87-1.99c-0.58-0.55-1.29-0.83-2.14-0.83l-15.29-0.53
			c-2.91,0-5.06-0.7-6.43-2.11c-1.38-1.4-2.06-3.24-2.06-5.5v-4.89c0-1.74,0.83-3.23,2.48-4.46c1.65-1.23,3.66-1.84,6.02-1.84h19.18
			c1.85,0,3.42,0.62,4.71,1.84c1.29,1.23,1.94,2.72,1.94,4.47v3.01h-8.5c0-0.91-0.28-1.63-0.83-2.18c-0.55-0.55-1.41-0.83-2.57-0.83
			h-11.65c-0.62,0-1.15,0.26-1.6,0.78c-0.45,0.52-0.68,1.15-0.68,1.89c0,0.94,0.09,1.61,0.27,2.02c0.18,0.4,0.69,0.61,1.53,0.61
			l16.51,0.53c2.59,0,4.65,0.66,6.19,1.97c1.54,1.31,2.31,3.67,2.31,7.06c0,4.05-0.87,6.78-2.62,8.21
			c-1.75,1.42-4.39,2.14-7.91,2.14h-16.26c-2.33,0-4.33-0.62-6-1.87s-2.5-2.73-2.5-4.44V617.52z"/>
	</g>
	<g>
		<g>
			<linearGradient id="SVGID_4_" gradientUnits="userSpaceOnUse" x1="324.068" y1="462.1951" x2="877.9319" y2="462.1951">
				<stop  offset="0" style="stop-color:#00F600"/>
				<stop  offset="0.4622" style="stop-color:#00D400"/>
				<stop  offset="0.7459" style="stop-color:#01E901"/>
				<stop  offset="1" style="stop-color:#00F801"/>
			</linearGradient>
			<path class="st10" d="M868.12,470.41c1.07-7.08,4.54-13.6,8.71-19.55c-6.32,4.29-10.39,10.93-12.47,17.82
				c-0.07-5.87-0.08-11.93-2.73-17.39c0.66,5.24,0.12,10.53-1.07,15.67c-1.48-5.22-3.57-10.65-8.19-14.21
				c0.73,1.91,1.54,3.79,2.33,5.69c0.01-0.01,0.03-0.02,0.05-0.04c0.95,3.35,1.61,6.82,1.1,10.29c-0.65-3.43-4.89-7.22-1.14-10.25
				c-1.14,0.89-2.26,1.79-3.37,2.71c-1.63-2.8-2.48-5.84-3.54-8.82c-0.4-0.87-1.53-1-2-0.13c0.75,1.51,2.26,2.81,1.89,4.74
				c-2.05-1.02-4.09-2.02-6.22-2.91c2.05,2,4.99,3.51,6.08,6.17c0.05,4.72-1.38,9.31-2.74,13.82c0.01-6-1.59-12.28-6.11-16.77
				c1.01,3.79,2.19,7.61,2.01,11.57c-1.06-1.22-2.03-2.48-3.03-3.74c0.74,3.01,1.49,6.02,1.6,9.11c-1.05-2.81-2.38-5.52-3.22-8.37
				c0.34-1.22,0.94-2.36,1.43-3.52c-0.58,0.41-1.72,1.24-2.29,1.64c-1.87-4.71-2.47-9.71-2.01-14.71
				c-1.62,3.17-2.92,6.57-2.79,10.13c-0.25,4.4,2.19,9.12-0.96,13.08c-1.13-9.14-4.14-18.74-11.66-25.15
				c4.01,7.8,6.29,16.26,6.66,24.9c-1.43-4.01-2.58-8.3-5.85-11.44c0.79,3.89,1.8,7.79,1.71,11.79c-2.9-5.55-3.19-11.84-2.85-17.87
				c-2.09,4.03-3.01,8.46-3.09,12.92c-1.61-5.76-1.02-11.72-0.69-17.58c-2.41,4.61-3.46,9.75-3.57,14.86
				c-2.11-3.58-4.26-7.17-7.21-10.2c1.42-2.24,2.79-4.52,4.03-6.86c-1.66,1.96-3.49,3.76-5.26,5.63c-1.52-1.07-3.06-2.13-4.62-3.15
				c0.65,0.8,1.31,1.62,1.98,2.42c-1.74,2.52-2.94,5.3-3.49,8.26c-0.7-0.88-1.41-1.76-2.1-2.63c0.55-1.13,1.12-2.24,1.67-3.37
				c-0.93,0.93-1.87,1.88-2.8,2.81c-1.99-2.81-0.92-6.32-1.52-9.47c-0.33,5.18-2.22,10.05-4.15,14.86
				c-0.77-4.46,0.45-8.86,2.43-12.9c-2.22,2.34-4.12,5-4.92,8.07c-1.56,4.58-0.34,9.34-0.15,14.01c-1.87-4.8-3.01-9.87-2.45-14.99
				c-1.98,2.89-2.57,6.26-3.2,9.56c-0.44-1.24-1.38-2.37-1.35-3.73c1.09-5.55,4.3-10.43,7.12-15.34c-3.9,3.57-7.55,7.47-9.89,12.12
				c-1.94-2.35-4.19-4.42-6.74-6.15c1.34,3.08,2.82,6.13,3.78,9.35c1.2,2.95-0.19,6-0.31,9c-1.22-5.14-3.92-9.78-7.55-13.8
				c-0.04-3.53,1.74-6.77,2.94-10.03c-2.88,2.25-3.52,6.07-6.23,8.3c0.44,4.16-0.55,8.33-0.38,12.51
				c-2.64-4.02-2.31-8.92-3.23-13.41c-0.68,2.75-1.13,5.52-1.62,8.3c-1.65-2.65-3.53-5.14-5.52-7.57c1.24-1.28,2.45-2.59,3.58-3.97
				c-1.45,1.06-2.92,2.13-4.36,3.19c-2.1-1.85-4.26-3.67-6.55-5.31c1.4,2.4,2.99,4.68,4.53,7c-1.3,1.33-2.36,2.99-4.22,3.72
				c-0.1,0.65-0.3,1.94-0.39,2.59l-1.28-0.11c0.09-3.04,0.72-6.02,1.23-9.02c-3.01,4.01-3.76,8.99-3.27,13.75
				c-1.14-3.91-3.67-7.26-6.21-10.5c0.7-1.99,1.54-3.92,2.31-5.88c-3.6,3.5-5.03,8.22-5.06,12.98c-1.43-6.96-0.02-14.3,4.4-20.1
				c-6.96,5.63-8.49,14.66-8.26,22.8c-0.75-2.5-1.27-5.04-1.83-7.59c-1.35,3.04-1.26,6.35-1.39,9.56
				c-0.96-3.35-0.95-6.92-2.47-10.12c-1.91-4.21-5.22-7.96-9.47-10.31c4.06,4.49,7.08,9.92,7.77,15.8
				c-1.19-0.64-2.36-1.29-3.54-1.93c0.35-1.93,0.74-3.88,0.96-5.85c-3.22,3.52-3.86,8.2-4.82,12.55c-0.89-3.23-2.1-6.37-3.22-9.54
				c0.59-0.76,1.18-1.52,1.77-2.27c-0.55,0.39-1.68,1.16-2.24,1.55c-0.85-1.24-1.59-2.5-2.4-3.74c0.37,1.85,0.81,3.7,0.95,5.58
				c-0.96,2.7-2.03,5.36-2.71,8.13c-1.37-6.03-1.83-12.21-1.18-18.35c-3.13,4.06-4.23,9.08-4.88,13.94
				c-0.64-1.13-1.24-2.29-1.84-3.44c-0.4-0.76-0.78-1.52-1.16-2.27c0.3-0.56,0.61-1.1,0.95-1.64c2.14-3.52,4.85-6.69,7.58-9.82
				c-2.83,1.85-5.47,3.95-7.82,6.3c-0.44,0.44-0.87,0.89-1.3,1.34c-1.45,1.57-2.77,3.24-3.96,5.01c-0.16-2.72-0.04-5.45-0.14-8.15
				c0-0.18-0.01-0.35-0.02-0.53c-0.06,0.18-0.12,0.37-0.19,0.55c-1.17,3.47-2.18,7.01-2.27,10.66c-0.01,3.35-1.48,6.45-2.29,9.68
				c-0.11,0.39-0.19,0.79-0.27,1.19c0.02-0.38,0.02-0.76,0.02-1.14c-0.05-3.25-0.81-6.45-0.85-9.69c1.14-3.48,2.31-6.98,2.84-10.58
				c0.11-0.73,0.19-1.45,0.24-2.18c-0.28,0.73-0.55,1.46-0.82,2.2c-0.99,2.64-1.99,5.28-3.25,7.82c-1.19-2.31-2.65-4.47-4.39-6.45
				c0.48,2.24,2.8,4.57,1.38,6.8c2.82,2.14,0.19,5.31-0.59,7.81c-0.85-2.5-1.4-5.09,0.68-7.32l-2.45,1.15
				c-1.75-3.33-3.46-6.77-5.96-9.65c-0.86-1-1.8-1.93-2.88-2.77c0.48,0.97,0.96,1.94,1.41,2.92c2.06,4.46,3.75,9.06,4.44,13.89
				c0.05,1.36-0.71,2.57-1.18,3.82c-0.51-2.53-0.72-5.1-1.07-7.66c-1.43,2.31-1.94,4.95-2.45,7.54c-0.89-2.8-2.05-5.52-2.89-8.33
				c0.23-2.14,0.94-4.21,1.38-6.32c-0.95,1.3-1.88,2.62-2.78,3.95c-1.87-3.11-4.07-6.08-6.85-8.55c1.73,2.99,3.66,5.9,5.06,9.05
				c1.3,2.34-0.51,4.82-0.82,7.19c-1.83-4.35-4.74-8.2-8.2-11.54c1.77,3.91,3.65,7.79,4.96,11.87c-1.86-1.7-3.7-3.45-5.69-5.01
				c0.86,3.05,1.56,6.15,2.18,9.26c-0.23-0.05-0.69-0.19-0.92-0.25c-3.08-5.84-3.52-12.66-0.76-18.69c-1.5,2.39-3.04,5.16-6.43,5.39
				c-0.21-1.94-0.39-3.89-0.69-5.82c-1.24,3.82-0.77,8.1-3.19,11.56c-0.14-2.57,0.08-5.12,0.29-7.67c-1.07,1.88-2.01,3.82-3.01,5.74
				c-0.82-1.49-1.78-2.93-2.43-4.52c1.17-2.96,3.39-5.43,4.94-8.21c-2.48,1.79-4.61,3.95-6.53,6.26c-2.57-1.7-5.24-3.25-8.09-4.52
				c2.2,1.8,4.64,3.49,6.15,5.87c0.67,1.14-0.8,2.2-1.08,3.24c-1.4-1.33-2.79-2.65-4.34-3.81c1.03,1.87,2.13,3.69,3.25,5.51
				c-0.63,2.13-1.19,4.27-1.67,6.43c-0.24-1.91-0.55-3.83-0.96-5.7c-1.2,3.15-2.07,6.4-3.02,9.62c-2.34-6.59-1.98-13.62-1.06-20.4
				c-2.52,4.51-3.6,9.56-3.86,14.6c-1.4-2.03-2.97-3.97-4.88-5.6c-0.39-0.33-0.79-0.65-1.21-0.95c0.44,0.82,0.86,1.64,1.26,2.48
				c1.56,3.16,2.85,6.43,3.23,9.92c-1.22-1.76-2.71-3.59-3.08-5.67c0.01-0.01,0-0.01,0-0.01c-0.08-0.48-0.1-0.96-0.05-1.47
				c0-0.02,0.01-0.04,0.01-0.05h-0.01l-1.2-0.39c-0.16-0.22-0.31-0.45-0.47-0.67c-1.84-2.88-2.77-6.21-3.68-9.44
				c-0.05,2.75,0.28,5.5,0.62,8.23c-0.65-0.95-1.32-1.88-2.05-2.78c-0.17-0.23-0.35-0.45-0.54-0.67c-0.23-0.29-0.47-0.58-0.74-0.86
				c-0.05-0.07-0.12-0.15-0.19-0.22c0.07-0.19,0.14-0.38,0.2-0.57c0.25-0.73,0.48-1.48,0.75-2.22c0.19-0.55,0.42-1.09,0.68-1.61
				c0.56-1.1,1.28-2.1,2.4-2.86c-0.24-0.16-0.49-0.28-0.74-0.43c-0.58,0.6-1.13,1.22-1.66,1.85c-0.21,0.26-0.42,0.52-0.63,0.79
				c-0.26,0.32-0.51,0.65-0.76,0.98c-0.33,0.44-0.65,0.87-0.96,1.32c-0.32,0.45-0.63,0.9-0.94,1.36c-0.05,0.08-0.12,0.16-0.17,0.24
				c-0.29-0.13-0.58-0.26-0.86-0.4c-0.26-0.11-0.51-0.23-0.78-0.35c-0.22-0.1-0.43-0.2-0.64-0.3c-0.33-0.16-0.67-0.32-0.99-0.47
				c0.35,0.24,0.68,0.5,0.99,0.77c0.24,0.21,0.45,0.43,0.65,0.66c0.31,0.37,0.58,0.77,0.78,1.19c0.49,1.03,0.58,2.19,0.09,3.47
				l-0.01-0.01c-0.26-0.43-0.53-0.84-0.81-1.25c-0.21-0.31-0.43-0.62-0.66-0.92c-0.96-1.28-2.02-2.48-3.17-3.62
				c-0.19-0.19-0.38-0.37-0.58-0.55c0.19-0.59,0.39-1.17,0.58-1.76c0.26-0.84,0.53-1.67,0.78-2.51c-0.26,0.39-0.51,0.78-0.78,1.17
				c-0.27,0.43-0.55,0.85-0.84,1.27c-0.24,0.37-0.5,0.75-0.75,1.13c-0.12-0.08-0.25-0.16-0.37-0.23c-0.41-0.26-0.84-0.52-1.25-0.76
				c-0.34-0.21-0.68-0.41-1.03-0.61c-0.19-0.11-0.39-0.23-0.58-0.34c0.23,0.28,0.45,0.56,0.68,0.83c0.25,0.3,0.49,0.6,0.74,0.89
				c0.33,0.41,0.65,0.81,0.99,1.21c-1.1,1.91-1.86,3.95-2.52,6.02c-0.26,0.76-0.48,1.53-0.72,2.3c-0.1-1.35-0.2-2.7-0.26-4.05
				c-0.16,0.1-0.4,0.24-0.65,0.4c-0.26,0.16-0.51,0.32-0.71,0.43c-0.03,0.02-0.05,0.04-0.07,0.05c-0.39-3.37-1.44-6.63-2.84-9.75
				c0.31,3.14,0.38,6.27,0.4,9.4c-0.99-0.47-2-0.91-3-1.34c-0.07-0.03-0.12-0.06-0.19-0.09c0.06,0.08,0.12,0.15,0.19,0.22
				c0.89,1.04,1.8,2.06,2.73,3.07c-0.26,2.6-0.51,5.19-0.95,7.77c-0.12-2.89-0.75-5.72-1.84-8.4c-0.26-0.63-0.53-1.25-0.84-1.85
				c-0.3-0.64-0.65-1.26-1.01-1.87c-0.38-0.62-0.79-1.24-1.23-1.84c-0.35-0.48-0.71-0.96-1.1-1.42c-0.24-0.29-0.5-0.59-0.75-0.88
				c-0.58-0.62-1.17-1.23-1.8-1.81c0.67,1.44,1.28,2.9,1.82,4.39c0.34,0.94,0.65,1.89,0.93,2.85c0.93,3.21,1.47,6.5,1.49,9.85
				c-0.37-0.99-0.75-1.97-1.21-2.93c-0.3-0.65-0.63-1.28-0.99-1.91c-0.3-0.54-0.65-1.08-1.01-1.6c0.47-1.74-1.18-2.24-2.38-2.95
				c-0.05-0.02-0.08-0.05-0.12-0.07c-0.22-0.35-0.41-0.72-0.58-1.09c-1.1-2.23-1.63-4.67-2.52-6.97c-0.12,1.28-0.19,2.58-0.26,3.86
				c-0.02,0.4-0.03,0.8-0.05,1.19c-0.2-0.11-0.4-0.22-0.6-0.33c-1.57-0.86-3.16-1.69-4.81-2.44c1.5,1.73,3.69,3.05,4.99,4.92
				c0.25,0.35,0.46,0.73,0.64,1.13c0.03,1.66-0.12,3.3-0.4,4.92c-0.52,3.04-1.47,6.03-2.47,8.96c0.17-4.46-0.65-9.16-3.01-13.07
				c-0.58-0.97-1.25-1.88-2.02-2.74c-0.33-0.37-0.69-0.73-1.06-1.07c1.21,3.59,2.08,7.28,2.36,11.06c-0.65-0.18-1.96-0.54-2.61-0.72
				c0.51,2.17,0.77,4.38,0.68,6.59c-0.91-2.92-1.98-5.81-3.14-8.65c0.72-1.1,1.42-2.21,2.13-3.3c-0.93,0.58-1.87,1.18-2.78,1.77
				c-1.78-4.52-2.43-9.32-2.14-14.1c-1.45,2.37-2.36,5.03-2.61,7.76c-0.81,5.07,2.29,10.36-0.88,15.1
				c-1.31-0.34-2.54-1.08-0.48-1.43c-0.59-9.11-4.83-17.85-11.39-24.61c3.66,8.12,6.68,16.66,6.53,25.58
				c-1.14-4.03-2.44-8.22-5.61-11.34c0.71,3.9,1.81,7.76,1.61,11.74c-2.86-5.58-3.04-11.88-2.9-17.93c-1.89,4.1-2.77,8.51-3.2,12.94
				c-1.2-5.83-0.79-11.73-0.59-17.61c-2.16,4.72-3.35,9.78-3.48,14.9c-2.09-3.58-4.29-7.14-7.2-10.2c0.43-0.74,0.89-1.47,1.35-2.2
				c0.23-0.35,0.47-0.71,0.7-1.07c0.61-0.92,1.24-1.84,1.84-2.76c-0.98,0.64-1.88,1.35-2.71,2.12c-0.58,0.54-1.14,1.12-1.64,1.72
				c-3.02,3.52-4.71,7.93-5.17,12.49c0.2-4.09-1.06-10.18,4-12.11c-0.22-0.13-0.44-0.25-0.65-0.37c-1.21-0.69-2.4-1.4-3.59-2.12
				c0.49,0.73,1.23,1.33,1.6,2.12c0.06,0.12,0.11,0.25,0.15,0.38c-1.45,2.6-2.82,5.25-3.32,8.17c-0.69-0.94-1.39-1.89-2.1-2.8
				c0.72-1.19,1.45-2.35,2.21-3.52c-1.16,1.01-2.3,2.02-3.47,3.01c-0.96-1.66-0.98-3.46-0.93-5.29c0.02-1.33,0.08-2.66-0.18-3.95
				c-0.14,1.33-0.38,2.65-0.7,3.94c-0.89,3.69-2.38,7.25-3.81,10.78c-0.46-3.71,0.29-7.34,1.59-10.82c0.27-0.73,0.57-1.44,0.88-2.15
				c-0.68,0.67-1.29,1.39-1.84,2.13c-4,5.4-4.71,12.53-2.78,18.76c0.59,0.51,1.22,1,1.89,1.46l-1.99-0.44l0.02,0.65l0.04,1.5
				c-0.12-0.52-0.26-1.04-0.4-1.57c-1.32-5.06-2.96-10.11-2.4-15.39c-1.94,3.1-2.8,6.59-2.92,10.14c-0.63-1.76-2.15-3.51-1.31-5.44
				c0.92-3.49,2.57-6.72,4.35-9.88c0.16-0.29,0.33-0.59,0.51-0.89c0.05-0.08,0.09-0.17,0.15-0.26c0.63-1.1,1.27-2.21,1.89-3.32
				c0.01-0.01,0.01-0.02,0.02-0.03c-0.01,0.01-0.02,0.02-0.03,0.03c-0.93,0.86-1.83,1.76-2.7,2.67c-0.04,0.04-0.07,0.07-0.1,0.11
				c-0.37,0.38-0.74,0.77-1.09,1.17c-0.09,0.09-0.17,0.19-0.26,0.28c-0.06,0.07-0.12,0.14-0.19,0.22c-2.15,2.42-4.08,5.01-5.69,7.79
				c-0.27-0.34-0.55-0.68-0.84-1.01c-0.49-0.57-1-1.12-1.54-1.66c-1.3-1.3-2.73-2.49-4.29-3.53c1.52,3.55,3.37,7.05,4.16,10.83
				c0.09,0.4,0.16,0.79,0.22,1.19c-0.03,0.46-0.08,0.92-0.14,1.37c-0.22,1.66-0.6,3.29-0.79,4.96c-1.06-4.64-3.41-8.86-6.48-12.6
				c-0.3-0.38-0.61-0.75-0.93-1.12c-0.05-1.85,0.38-3.62,0.99-5.35c0.54-1.54,1.19-3.05,1.73-4.57c-0.6,0.63-1.17,1.28-1.7,1.95
				c-1.44,1.81-2.6,3.78-3.26,5.94c-0.6-0.08-1.85-0.26-2.46-0.34c0.61,0.52,1.22,1.04,1.84,1.57c-0.82,4.27-0.95,8.61-0.61,12.92
				c-2.43-4.6-2.92-9.77-3.27-14.82c-1.02,2.88-1.45,5.9-1.68,8.92c-1.55-2.92-3.52-5.61-5.71-8.14c1.07-1.16,2.17-2.28,3.24-3.44
				c-1.38,0.83-2.71,1.72-4.04,2.62c-0.27-0.26-0.55-0.53-0.84-0.79c-1.84-1.63-3.87-3.06-5.97-4.39c1.58,2.33,3.27,4.58,4.85,6.89
				c-1.28,1.39-2.57,2.77-4.13,3.88c-0.44,1.24-0.83,2.49-1.24,3.74c-1.02-3.76,0.14-7.5,1.24-11.12c-3.2,3.98-4.23,8.94-3.96,13.82
				c-1.42-3.59-3.62-6.82-6.01-9.92c0.79-2.19,1.6-4.36,2.33-6.56c-3.13,4.05-5.12,8.74-5.43,13.75c-0.6-5.94-0.14-12.06,2.75-17.5
				c0.82-0.91,1.63-1.81,2.45-2.71c-7.81,5.13-8.68,14.82-9.02,22.94c-0.47-2.06-0.86-4.15-1.17-6.22l-1.21-0.09
				c-0.33,2.75-0.47,5.51-0.7,8.29c-0.81-3.4-0.84-6.97-2.39-10.19c-1.8-4.4-5.55-7.72-9.33-10.71c1.17,2.62,3.54,4.58,4.94,7.11
				c-0.35,2.14-1.83,4-2.61,6.03c-0.27-0.02-0.84-0.04-1.11-0.05c0.73,2.57-0.41,5.15-0.91,7.68c-0.81-2.53-1.77-5.01-2.72-7.5
				c-0.77-1.2-0.12-2.38,0.67-3.36c-0.54,0.13-1.63,0.38-2.17,0.5c-0.61-1.15-1.24-2.29-1.91-3.41c0.31,1.85,0.69,3.69,1.1,5.52
				c-1.22,2.57-2.1,5.28-2.73,8.03c-2.13-6.78-1.66-13.83-1.14-20.76c-1.96,1.02-3.75,2.3-5.43,3.68c-2.81,2.45-5.06,5.37-7.23,8.31
				c-0.15-3.1-0.04-6.21-0.19-9.29c-0.76,2.86-1.46,5.72-1.98,8.62c-0.27,0.02-0.82,0.07-1.08,0.08c1.85,3.99-0.44,8.03-1.31,11.95
				c-0.13,0.01-0.4,0.04-0.52,0.04c-0.17-2.92-0.82-5.82-0.95-8.75c1.35-4.26,2.97-8.51,3.06-13.01c-1.14,3.44-2.29,6.88-4.05,10.1
				c-1.2-2.27-2.58-4.48-4.4-6.38c0.75,1.9,1.55,3.79,2.27,5.7c-1.01,1.07-2.05,2.12-3.08,3.2c-2.08-4.94-4.99-9.65-9.15-13.33
				c2.65,5.38,5.07,10.94,6.02,16.83c0.26,1.53-0.66,2.93-1.17,4.33c-0.52-2.58-0.7-5.2-1.02-7.8c-1.34,2.38-2.04,4.98-2.62,7.59
				c-0.7-2.84-1.84-5.56-2.75-8.32c0.28-2.15,0.93-4.24,1.32-6.37c-0.92,1.33-1.81,2.64-2.7,3.97c-1.91-3.15-4.1-6.16-7.02-8.58
				c2.23,3.51,4.46,7.03,5.91,10.88c-0.61,1.81-1.14,3.63-1.58,5.47c-1.76-4.37-4.7-8.22-8.13-11.6c1.7,4.13,4.16,8.06,4.68,12.51
				c-1.23-2.24-3.12-4.06-5.31-5.52c0.68,3.17,1.59,6.31,1.99,9.53c-4.38-5.59-4.06-12.99-1.84-19.29c-1,1.55-1.91,3.16-2.75,4.8
				c-1.18-0.08-2.37-0.1-3.56-0.1c-0.16-1.9-0.45-3.79-0.72-5.68c-0.92,4.04-0.5,8.52-3.2,12.02c0.01-2.6,0.27-5.19,0.49-7.77
				c-1.09,1.89-1.98,3.87-2.89,5.84c-0.86-1.37-1.73-2.74-2.65-4.09c1.23-3.2,3.38-5.97,5.38-8.78c-2.71,1.81-5.07,4-7.04,6.49
				c-2.34-1.64-4.75-3.19-7.35-4.46c2.11,1.99,4.19,4,5.98,6.24c-0.41,0.65-1.24,1.96-1.66,2.63c-1.43-1.31-2.89-2.59-4.44-3.78
				c1.16,1.88,2.36,3.73,3.55,5.6c-0.65,2.14-1.3,4.3-1.95,6.44c-0.08-1.67-0.18-3.34-0.27-5l-0.85-0.08
				c-0.91,2.99-1.71,5.99-2.67,8.96c-2.28-6.6-1.94-13.62-1.1-20.42c-2.36,4.6-3.59,9.63-3.81,14.7c-1.78-2.65-3.98-5.01-6.46-7.12
				c2.18,4.03,4.7,8.18,4.51,12.84c-1.29-2.23-2.77-4.49-2.99-7.08c-3.17-1.83-2.99-6.06-5.17-8.66c0.16,1.9,0.4,3.8,0.68,5.68
				c-1.18-1.21-2.33-2.43-3.52-3.63c0.61-2.77,2.12-5.24,3.44-7.74c-2.15,1.76-3.82,3.98-5,6.41c-1.17-0.51-2.35-1.05-3.52-1.55
				c1.9,1.47,3.84,3.21,2.6,5.71c-1.73-2.02-3.37-4.1-5.29-5.95c0.44-1.19,0.87-2.38,1.28-3.58c-0.85,0.92-1.66,1.86-2.5,2.8
				c-1.05-0.57-2.08-1.12-3.13-1.65c0.84,0.91,1.69,1.83,2.54,2.74c-0.86,1.69-1.64,3.41-2.52,5.08c-1.69-0.64-2.47-2.61-3.83-3.75
				c2.95,7.11,3.75,14.74,3.71,22.3c50.2,0.01,100.4,0.02,150.59,0.03h110.44c5.73,0,11.44-0.01,17.18-0.01h83.63
				c39.11,0,78.22,0,117.33,0.01c21.07-0.13,42.15,0.24,63.22-0.19c0.33-7.64,3.36-14.89,7.77-21.25
				C873.34,461.17,870.32,465.7,868.12,470.41z M333.62,463.73c-0.94,1.63-1.77,3.32-2.64,4.98c-1.21-3.71-0.51-7.6,0.43-11.28
				c4.12,5.6,5.04,12.62,5.25,19.23C333.81,472.87,333.58,468.19,333.62,463.73z M339.81,461.21c2.43,4.21,3.45,9.02,3.31,13.77
				C341.5,470.52,339.92,465.96,339.81,461.21z M367.51,461.07c2.25,3.4,2.77,7.47,3.23,11.36
				C369.69,468.62,366.49,465.13,367.51,461.07z M376,463.99c0.4,2.76,0.9,5.52,1.35,8.28C376.15,469.66,375.07,466.84,376,463.99z
				 M380.41,467.74c-0.72-2.75-1.87-5.49-1.83-8.34c0.25-0.11,0.72-0.37,0.97-0.49c0.61-0.11,1.24-0.05,1.84,0.2
				C380.38,461.89,380.32,464.84,380.41,467.74z M409.63,468.54c-0.44-1.37-0.85-2.74-1.25-4.12c0.81-1.24,1.6-2.5,2.4-3.74
				C411.98,463.35,410.46,465.99,409.63,468.54z M421.33,466.56c1.8,3.8,3.04,7.85,3.48,12
				C423.38,474.64,421.42,470.76,421.33,466.56z M422.16,463.8c0.53-0.95,1.07-1.88,1.62-2.81c1.02,3.81,2.5,7.5,4.05,11.16
				C426.18,469.22,424.42,466.35,422.16,463.8z M431.42,452.36c-2.06,4.04-3.33,8.37-3.9,12.8c-1.01-1.94-1.97-3.89-2.91-5.85
				c1.82-3.52,4.51-6.54,6.84-9.75C431.75,450.46,432.05,451.49,431.42,452.36z M437.44,474.15c-0.55-3.05-0.44-6.18-0.01-9.24
				C437.77,467.98,437.87,471.09,437.44,474.15z M445.64,467.16c-1.35-0.14-1.59-0.77-0.74-1.88
				C446.26,465.42,446.51,466.06,445.64,467.16z M447.98,474.85c-0.76-2.71-1.31-5.53-0.99-8.35
				C449.08,468.96,448.77,472,447.98,474.85z M445.61,461.39c0.36-1.09-0.05-3.41,1.91-2.64c0.71,2.04,0.98,4.19,1.36,6.3
				C447.66,463.96,444.68,463.51,445.61,461.39z M465.18,475.17c-1.49-4.6-2.91-9.36-2.45-14.22
				C464.42,465.5,465.64,470.34,465.18,475.17z M478.28,466.44c-0.78-1.46-1.25-3.04-1.23-4.78c-3.13,3.76-0.8,8.37,0.91,12.17
				c-1.46-2.21-3.15-4.44-3.66-7.04c0.44-2.89,2.22-5.39,3.45-8.02c0.17,0.28,0.32,0.56,0.49,0.85c2.27,4.13,4.08,8.49,5.1,13.03
				C481.44,470.77,479.5,468.75,478.28,466.44z M494.88,469.35c-0.42-1.82-0.63-3.68-0.51-5.56c0.2,0.62,0.37,1.24,0.51,1.87
				c0.68,2.68,1.07,5.42,1.38,8.16C495.71,472.36,495.22,470.86,494.88,469.35z M651.3,457.45c-1.35,3.55-1.69,7.3-1.28,11.04
				c-0.85-3.07-1.62-6.14-2.12-9.25C648.74,458.79,650.45,457.9,651.3,457.45z M645.56,464.02c0.26,2.8,0.78,5.55,1.56,8.25
				C645.71,469.75,644.34,466.87,645.56,464.02z M637.28,461.04c1.92,4.09,2.75,8.53,3.18,12.96c-0.85-3.5-2.18-6.88-3.94-10.07
				C636.71,463.21,637.09,461.76,637.28,461.04z M609.62,461.78c0.27,0.51,0.52,1.04,0.75,1.57c0.19,0.43,0.37,0.86,0.54,1.31
				c1.17,3.08,1.76,6.35,1.73,9.64c-0.68-1.44-1.28-2.93-1.78-4.43c-0.24-0.73-0.46-1.48-0.65-2.23c-0.33-1.28-0.58-2.58-0.72-3.89
				v-0.02c-0.09-0.83-0.15-1.67-0.16-2.51C609.43,461.39,609.52,461.58,609.62,461.78z M600.99,457.4c0.15,0.23,0.3,0.46,0.44,0.69
				c0.3,0.47,0.58,0.94,0.84,1.43c1.78,3.28,2.88,6.86,3.38,10.52c0.31,2.24,0.39,4.51,0.28,6.74c-2.29-4.01-2.99-8.53-2.83-13.03
				c-0.27,0.5-0.54,1-0.82,1.51c-0.28,0.51-0.55,1.02-0.84,1.53c-0.36,0.66-0.71,1.31-1.07,1.96
				C599.46,464.99,599.77,461.09,600.99,457.4z M582.33,468.36c0.98,2.39,0.96,4.98,0.91,7.49
				C582.56,473.41,582.03,470.91,582.33,468.36z M538.05,471.35c-1.48-3.29-2.92-6.63-3.35-10.19
				C536.36,464.37,537.58,467.8,538.05,471.35z M533.27,457.1c-0.72,3.51-1.26,7.05-1.44,10.64
				C531.9,464.25,530.53,459.98,533.27,457.1z M521.23,457.32c1.5,3.74-1.59,7.45-1.62,11.27
				C518.86,464.77,520.27,461,521.23,457.32z M523.07,475.1c-0.04-0.28-0.08-0.56-0.11-0.84c-0.5-3.8-0.89-7.68-0.08-11.46
				c0.83,3.79,1,7.69,0.33,11.51C523.18,474.57,523.12,474.83,523.07,475.1z M691.81,471.85c-0.12-0.37-0.23-0.74-0.34-1.11
				c-0.4-1.33-0.73-2.68-0.99-4.04c0.8,1.15,1.42,2.37,1.91,3.64c0.14,0.34,0.26,0.69,0.38,1.04c0.79,2.33,1.23,4.77,1.7,7.15
				C693.46,476.35,692.55,474.12,691.81,471.85z M695.06,468.45c-0.52-0.78-1.06-1.55-1.59-2.33c-0.53-0.76-1.05-1.51-1.56-2.27
				c0.32-1.01,0.81-1.99,1.32-2.93c0.09,0.33,0.19,0.66,0.3,0.99c0.51,1.68,1.06,3.35,1.67,5c0.68,1.8,1.42,3.58,2.27,5.33
				C696.71,470.95,695.9,469.69,695.06,468.45z M707.15,474.2c-0.58-2.78-0.89-5.61-0.6-8.43
				C707.28,468.52,707.4,471.39,707.15,474.2z M715.28,467.2c-1.34-0.21-1.55-0.86-0.64-1.93
				C715.97,465.5,716.18,466.14,715.28,467.2z M717.48,474.27c-0.84-2.46-1.59-5.07-0.89-7.64
				C718.43,468.9,718.37,471.67,717.48,474.27z M734.83,475.85c-1.32-4.81-3.22-9.7-2.35-14.74
				C733.94,465.89,735.16,470.84,734.83,475.85z M747.74,465.87l-0.93-0.26c1.58,3.32,2.54,6.89,3.05,10.46
				c-3.22-3.32-6.81-7.35-5.9-12.17c0.16,0.05,0.48,0.13,0.65,0.17c0.75-1.79,1.66-3.5,2.78-5.12c1.07,1.95,2.09,3.92,2.99,5.94
				l0.01,0.01c0.42,1.14,0.87,2.26,1.33,3.39C750.53,467.31,749.44,466.05,747.74,465.87z M764.97,473.71
				c-0.33-3.22-0.85-6.42-1.7-9.56c0.19,0.1,0.6,0.31,0.8,0.41c0.74,2.69,1.37,5.44,1.1,8.24c0.22,0.08,0.68,0.25,0.9,0.34
				C765.8,473.28,765.25,473.57,764.97,473.71z M791.15,460.37c-1,3-1.63,6.09-2.43,9.14c-0.06-4.15,0.68-8.28,2.1-12.2
				C791.08,458.3,791.68,459.35,791.15,460.37z M792.75,475.05c-0.86-4-1.23-8.16-0.37-12.19
				C793.27,466.87,793.32,471,792.75,475.05z M799.47,457.11c-1.32,2.45-1.5,5.19-1.99,7.83c-0.37-3.88-0.38-7.97,1.69-11.49
				C801.64,453.05,799.93,456.15,799.47,457.11z M801.51,467.19c0.12-3.32-1.38-7.41,1.18-10.04
				C802.2,460.5,801.74,463.83,801.51,467.19z M804.13,461.12c1.74,3.19,2.81,6.65,3.64,10.13
				C806.09,468.04,804.55,464.7,804.13,461.12z M851.69,468.15c1.03,2.47,1.05,5.13,1.07,7.73
				C851.92,473.38,851.54,470.76,851.69,468.15z"/>
		</g>
	</g>
	<g>
		<path d="M673.28,348.87c-0.35,2.21-0.8,4.41-1.34,6.59l-1.49,5.96h-0.04l-35.08,0.57l-8.86,0.14l-28.6,0.47l-1.24,0.02l-29.3,0.47
			l-9.05,0.15l-30.14,0.49l-1.1-5.15l-0.85-4l-0.04-0.31c-0.15-1.09-0.28-2.14-0.39-3.18v-0.01c-0.05-0.47-0.1-0.94-0.14-1.4
			c-0.06-0.53-0.1-1.04-0.14-1.55c0.27,0.09,0.53,0.19,0.79,0.3l-0.25,1.28l6.15,0.58l12.98,1.22l5.18,0.48l15.4,1.46L597.28,312
			l31.22,41.02l36.32-3.37L673.28,348.87z"/>
		<path d="M719.38,344.6c0.39,0.11,0.77,0.21,1.16,0.32l-0.49,3.88l-1.48,11.84l-48.12,0.78h-0.04l-2.45-3.05
			c-1.51-1.89-2.52-4.14-2.93-6.52c-0.12-0.74-0.19-1.47-0.21-2.2l8.46-0.78l8.47-0.78l3.24-0.3l25.34-2.35l9.04-0.84H719.38z"/>
		<polygon points="681.75,348.09 684.99,347.79 684.15,353.75 		"/>
		<path d="M699.29,316.43l1.65,0.57c-0.68-0.05-1.36-0.11-2.06-0.16L699.29,316.43z"/>
		<path d="M526.27,348.43l-0.25,1.28l-0.26,1.37v0.01l-1.87,9.73l-0.57,2.99l-5.1,0.08l-0.19-1.12l-2.4-14.03l-0.07-0.43
			c1.83-0.62,3.65-0.93,5.38-0.93c1.58,0,3.1,0.25,4.54,0.75C525.75,348.22,526.01,348.32,526.27,348.43z"/>
		<path class="st11" d="M664.59,321.6c-0.44-1.6-0.88-3.2-1.32-4.81c-3.75-10.99-9.89-20.38-18.28-28.26
			c-0.73-0.57-1.49-1.11-2.21-1.69c-4.46-3.64-9.19-6.83-14.65-8.88c-9.24-4.45-19.13-5.99-29.43-5.58
			c-11.15,0.45-21.56,3.82-31.4,9.3c-10.98,6.74-19.56,15.83-26.02,26.95c-4.17,8.53-7.15,17.38-7.93,26.83
			c-0.49,5.99-0.07,11.88,0.72,17.76l0.51,2.41l129.58-2.11C666.79,343.05,666.89,332.41,664.59,321.6z"/>
		<path class="st11" d="M649.72,283.24c2.84,1.89,5.89,2.94,9.77,1.73c-1.43,2.27-1.96,4.29-1.28,6.45
			c1.48,4.64,7.17,5.82,10.86,2.23c3.94-3.84,7.82-7.73,11.73-11.6c7.11-7.25,14.22-14.51,21.33-21.76
			c-0.56-0.05-0.93,0.12-1.29,0.33c-8.93,5.14-17.86,10.27-26.79,15.41c-3.21,1.95-6.42,3.89-9.63,5.84
			c-0.14-0.14-0.27-0.28-0.41-0.42c2.09-2.93,4.17-5.86,6.26-8.8c7.1-10.39,14.2-20.78,21.3-31.17c4.3-6.24,8.59-12.48,12.89-18.72
			c-1.11-0.44-1.51,0.61-2.12,1.12c-5.21,4.4-10.39,8.83-15.58,13.25c-9.48,8.29-18.95,16.58-28.7,24.55
			c-2.17,1.92-4.33,3.84-6.5,5.75C645.72,272.62,645.18,277.23,649.72,283.24z"/>
		<path class="st11" d="M529.36,289.64c2.6,3.21,5.73,4.6,9.8,4.27c0.38-0.09,0.77-0.19,1.15-0.28l0.03-0.01
			c1.33-0.76,2.66-1.52,3.99-2.29c0.3-0.33,0.6-0.66,0.9-1c1.6-2.7,2.66-5.5,1.83-8.88c1.87,0.58,3.57,1.06,5.37,0.83
			c3.01-1.13,4.8-3.24,5.26-6.44c-0.25-1.12-0.5-2.25-0.75-3.37c-6.8-6.85-13.61-13.7-20.4-20.56c-0.95-0.96-1.86-1.97-2.78-2.95
			c-0.55-0.21-0.9-0.61-1.1-1.16c-0.36-0.35-0.72-0.71-1.07-1.06c-2.8-2.73-5.6-5.46-8.4-8.2c-0.12,0.1-0.21,0.22-0.27,0.36
			c0.44,0.36,0.68,0.83,0.72,1.42c0.1,0.14,0.2,0.28,0.3,0.42c0.88,1.17,1.62,2.42,2.08,3.83c1.72,2.56,3.17,5.27,4.5,8.06
			c4.33,7.67,8.66,15.34,12.99,23.01c-0.16,0.14-0.31,0.29-0.47,0.43c-7.07-4.84-14.14-9.68-21.22-14.52
			c-6.86-4.55-13.72-9.08-20.56-13.66c-3.31-2.22-6.57-4.52-9.85-6.78c-1.84-0.69-3.1-2.42-5.39-3.05c1.45,1.81,2.66,3.32,3.87,4.83
			c7.95,9.44,15.91,18.89,23.86,28.33C518.95,277.36,524.3,283.38,529.36,289.64z"/>
		<path class="st11" d="M522.9,238.94c0-0.01,0.01-0.01,0.01-0.02c-0.01-0.01-0.01-0.01-0.02-0.02
			C522.89,238.9,522.9,238.94,522.9,238.94z"/>
		<path class="st11" d="M680.24,324.13c0.01,0,0.02,0,0.03,0c0,0,0.01-0.01,0.01-0.01L680.24,324.13z"/>
		<path class="st11" d="M752.92,328.58c-0.18,0.08-0.35,0.17-0.51,0.25c-4.99,1.15-9.97,2.3-14.97,3.44
			c-13.85,2.6-27.65,5.53-41.43,8.59c-3.93,0.64-7.86,1.31-11.71,2.48c-0.14-0.01-0.46-0.35-0.35,0.17
			c0.11-0.05,0.23-0.11,0.35-0.16c3.91,1.77,8.17,2.45,12.34,3.4c7.27,1.96,14.54,3.92,21.81,5.9l-44.24,0.72
			c-0.65-0.81-1.1-1.79-1.28-2.85c-0.47-2.82,0.88-5.58,3.49-7.02c0.68-0.37,1.39-0.65,2.11-1c-5.5-5.15-6.14-8.01-3.26-14.34
			c1.42-1.32,2.84-2.65,4.27-3.96c0.26,0.52,0.5,0.18,0.75-0.05c8.53-0.5,16.9,0.84,25.37,1.14c1.45,0.05,2.9,0.08,4.35,0.13
			c6.85,0.7,13.72,1.11,20.62,1.33c6.5,0.47,13,0.94,19.5,1.42c0.75,0.06,1.52,0.2,2.27,0.3
			C752.57,328.49,752.74,328.54,752.92,328.58z"/>
		<path class="st11" d="M647.57,269.68c1.79-4.16,3.61-8.32,5.42-12.48c3.78-9.03,7.57-18.06,11.32-27.1
			c0.32-0.77,0.97-1.49,0.75-2.59c-6.28,7.93-12.49,15.78-18.71,23.63c-2.55,3.39-5.08,6.78-7.63,10.17
			c-0.15-0.06-0.3-0.1-0.45-0.16c0.33-1.88,0.66-3.76,0.97-5.65c0.48-1.38,0.94-2.77,0.94-4.24c0.42-1.49,0.85-3,1.28-4.5
			c0.88-3.88,1.75-7.76,2.62-11.64c2.29-10.25,4.58-20.49,6.86-30.73c0.74-3.61,1.48-7.22,2.22-10.82
			c-0.14-0.05-0.29-0.11-0.42-0.15c-1.62,2.93-3.23,5.84-4.85,8.76c-5.8,11.52-11.8,22.94-17.98,34.26
			c-2.99,5.83-5.87,11.73-9.03,17.47c-1.61,2.93-2.21,5.82-1.54,8.98c1.29,2.81,3.12,5.03,6.22,5.97c3.1,0.94,6.02,0.18,8.88-1.52
			c0.16,4.72,1.87,7.1,5.28,7.71C643.13,275.67,645.76,273.86,647.57,269.68z"/>
		<path class="st11" d="M721.89,304.73c-4.65,0.6-9.3,1.2-13.95,1.8c-9.22,1.34-18.43,2.68-27.65,4.02
			c0.69-1.65,2.44-1.79,3.68-2.63c4.91-3.29,9.87-6.5,14.81-9.73c10.73-7.14,21.47-14.28,32.2-21.43c2.84-1.98,5.69-3.97,8.53-5.95
			c-0.05-0.09-0.1-0.18-0.15-0.27c-3.78,1.21-7.57,2.42-11.35,3.62c-9.94,3.34-19.89,6.69-29.82,10.04
			c-3.65,1.22-7.3,2.45-10.95,3.68c-4.83,1.66-9.67,3.26-14.48,5.02c-4.19,1.53-6.79,5.38-6.7,9.63c0.09,4.31,2.76,7.59,7.14,8.77
			l0.19,0.17l0.2,0.15c0.7,0,1.04,0.16,0.32,0.77c-2.17,1.85-2.9,4.16-2.38,6.86c0.87,2.89,2.76,4.32,5.87,4.51
			c0.71,0.05,1.56-0.42,2.12,0.37c0.24-0.33,0.47-0.68,0.72-0.07c0.17-1.18,1.29-1.18,2.04-1.56c2.03-1.03,4.12-1.95,6.2-2.91
			c2.87-0.87,5.61-2.07,8.37-3.27c5.42-2.34,10.86-4.61,16.3-6.91c2.96-1.36,5.92-2.73,8.88-4.09
			C721.99,305.13,721.94,304.93,721.89,304.73z"/>
		<path class="st11" d="M537.76,210.38c0.1,0.31,0.2,0.62,0.3,0.92c0.55,1.76,1.09,3.52,1.64,5.28c0.12,0.1,0.13,0.21,0.03,0.34
			c0.13,0.43,0.26,0.86,0.39,1.29c0,0,0.01-0.03,0.01-0.03c1.27,3.17,2.22,6.45,2.99,9.8c0.12,0.09,0.18,0.22,0.17,0.38
			c0.31,0.66,0.76,1.3,0.23,2.09c0.82,0.63,1.1,1.51,1.13,2.52c0.47,0.89,0.82,1.83,0.87,2.86c3.1,10.02,6.26,20.01,9.25,30.06
			c0.99,3.32,2.82,5.75,5.87,7.27c4.25,1.17,8.04,0.56,11.05-3.17c0.46-0.36,0.82-0.77,0.93-1.37c0.15-0.31,0.31-0.62,0.46-0.93
			c0.35-0.75,0.7-1.5,1.06-2.26c4.29,2.65,6.51,2.88,9.29,1.01c0.29-0.24,0.58-0.49,0.87-0.73c1.18-1.11,1.8-2.45,1.73-4.06
			c0.25-2.99-1.35-5.35-2.48-7.86c-0.43-1.31-0.86-2.62-1.29-3.92c-1.2-2.5-2.38-5.01-3.01-7.74c-0.71-0.57-0.82-1.47-1.13-2.25
			c-2.85-7.04-5.66-14.1-8.52-21.13c-0.27-0.67-0.27-1.66-1.31-1.89c0.54,5.51,1.06,10.89,1.58,16.28c0.77,6.7,1.54,13.4,2.31,20.09
			c0.11,0.93,0.28,1.85,0.42,2.77c-0.21,0.78,0.33,1.66-0.39,2.37c-1.03-2.16-2.39-4.1-3.78-6.02c-4.97-7.78-9.94-15.57-14.9-23.36
			c-0.27-0.42-0.46-0.89-0.69-1.34c-5.12-7.52-10.03-15.17-14.76-22.94c-1.25-0.77-1.04-3.03-3.05-3.03
			c0.69,0.98,0.91,2.14,1.13,3.3C536.88,206.7,537.46,208.49,537.76,210.38z"/>
		<path class="st11" d="M591.4,204.38c-1.29,13.87-2.58,27.73-3.88,41.6c0.06,0.29,0.12,0.58,0.17,0.87
			c-0.1,0.13-0.17,0.26-0.23,0.41c-0.59,1.81-0.64,3.62-0.29,5.45c-1.06,1.83-0.82,3.66-0.22,5.5c2.25,7.16,9.3,9.01,15.78,4.16
			c0.61-0.74,1.21-1.47,1.86-2.26c2.5,5.28,6.59,6.74,10.47,3.88c2.02-1.49,2.7-3.51,2.73-5.91c0.11-9.42,0.27-18.84,0.43-28.27
			c0.02-1.2,0.13-2.41,0.2-3.62c-0.02-4.29-0.03-8.58-0.05-12.87c-0.17-0.01-0.34-0.02-0.51-0.02c-1.01,3.19-2.02,6.38-3.04,9.57
			c-2.4,8.47-4.8,16.94-7.2,25.41c-0.28,1-0.5,2.02-0.75,3.02c-0.16,0.54-0.33,1.07-0.49,1.61c-0.04,0.22-0.07,0.44-0.11,0.66
			c-0.13,0.13-0.22,0.27-0.28,0.44c-0.56-2.43-1.12-4.86-1.68-7.29c-1.01-6.29-2.02-12.57-3.03-18.86
			c-1.37-6.65-2.57-13.34-3.49-20.09c-1.34-7.2-2.68-14.4-4.02-21.6c-0.18,0.02-0.35,0.03-0.53,0.05
			c-0.56,5.03-1.12,10.06-1.68,15.08C591.52,202.33,591.49,203.36,591.4,204.38z"/>
		<path class="st11" d="M680.28,324.12c-0.01-0.02-0.02-0.04-0.03-0.06c0,0.02-0.01,0.05-0.01,0.07
			C680.24,324.13,680.28,324.12,680.28,324.12z"/>
		<path class="st11" d="M679.53,324.17l-0.02,0c0,0.01,0.01,0.01,0.01,0.02c0.01-0.01,0.01-0.01,0.02-0.02h0
			c-0.01-0.01-0.01-0.01-0.02-0.02c-0.01,0.01-0.01,0.02-0.02,0.02C679.51,324.17,679.52,324.17,679.53,324.17z"/>
		<polygon class="st11" points="653.44,192.38 653.23,192.44 653.3,192.57 		"/>
		<path class="st11" d="M527.98,318.62c3.02-3.75,2.96-7.81,0.47-12.01c2.95,0.01,5.21-1.08,6.87-3.34
			c0.34-1.03,0.69-2.06,1.03-3.09c-0.19-3.47-2.01-5.56-5.2-6.77c-4.75-1.8-9.41-3.82-14.11-5.75c-4.52-1.5-8.89-3.35-13.25-5.25
			c-4.61-1.78-9.22-3.56-13.82-5.35c-0.06,0.12-0.12,0.24-0.18,0.35c3.57,2.82,7.14,5.64,10.72,8.46
			c7.21,5.51,14.42,11.03,21.62,16.54c-0.09,0.21-0.17,0.42-0.26,0.62c-10.35-2.07-20.7-4.14-31.05-6.21
			c-8.6-1.65-17.2-3.3-25.8-4.95c-3.43-0.61-6.85-1.22-11.02-1.97c8.12,4.22,15.55,8.08,22.99,11.95c2.32,0.72,4.37,1.97,6.45,3.15
			c11.18,5.61,22.35,11.21,33.53,16.82C521.22,323,525.08,322.2,527.98,318.62z"/>
		<path class="st11" d="M525.11,345.74c-0.11-3.74-1.62-6.74-4.82-8.96c0.6-0.34,0.96-0.55,1.31-0.75c3.08-1.77,4.43-4.52,3.72-7.58
			c-0.7-3.01-3.15-4.78-6.64-4.81c-0.85-0.01-1.7-0.06-2.55-0.09c-4.56,0.17-9.11,0.35-13.67,0.52c0.04,0.05,0.1,0.1,0.15,0.15
			c-0.06-0.05-0.11-0.1-0.15-0.15c-0.49-0.1-0.97-0.21-1.46-0.31c-9.44,0.25-18.87,0.51-28.31,0.76c8.36,2.33,16.55,5,25.02,6.63
			c0.24,0.01,0.49,0.03,0.73,0.04c0.3,0.27,0.58,0.57,1.05,0.29c2.02,1.41,4.63,1.21,6.78,2.28c2.26,0.41,4.5,0.89,6.63,1.75
			c0.4-0.15,0.67-0.06,0.76,0.38c-0.25,0.05-0.5,0.11-0.74,0.16c-3.51,0.71-7.03,1.42-10.54,2.13c-11.37,2.38-22.74,4.75-34.1,7.13
			c-0.92,0.22-1.84,0.47-2.77,0.67c-6.41,1.4-12.83,2.79-19.24,4.18v0c-0.18,0.07-0.35,0.15-0.53,0.22
			c0.18,0.08,0.37,0.15,0.55,0.23v0c0.59,0.07,1.19,0.16,1.78,0.2c9.59,0.68,19.17,1.35,28.76,2.02c3.71,0.01,7.41,0.22,11.07,0.72
			c8.33,0.48,16.66,0.93,24.99,1.45C519.9,355.47,523.69,352.62,525.11,345.74z"/>
		<path class="st11" d="M459.47,408.17c-0.01,0.01-0.03,0.02-0.04,0.03c0.02,0.02,0.03,0.02,0.05,0.04v0
			c0.02-0.02,0.03-0.03,0.05-0.05C459.5,408.19,459.49,408.18,459.47,408.17L459.47,408.17z"/>
		<path class="st11" d="M523.19,355.81l-5.09,0.08C520.06,355.24,521.75,355.21,523.19,355.81z"/>
		<path class="st11" d="M458.91,408.3c-0.04,0.05-0.01,0.15-0.01,0.23c0.18-0.11,0.35-0.22,0.53-0.33
			C459.24,408.01,459.06,408.09,458.91,408.3z"/>
	</g>
	<g>
		<polygon points="447.6,365.57 443.09,373.12 398.13,448.54 396.18,451.81 389.55,462.93 361.21,462.93 371.8,444.84 
			373.65,441.69 428.85,347.41 432.63,340.96 433.07,340.2 433.55,341.04 		"/>
		<polygon points="574.23,354.25 567.33,363.09 556.26,377.28 556.26,381.72 552.78,381.74 491.45,460.39 488.45,454.98 
			477.79,435.73 475.96,432.45 443.09,373.12 438.31,364.48 432.2,353.46 429.5,348.58 429.03,347.73 429.02,347.73 428.85,347.41 
			425.94,342.17 424.87,340.23 430.18,340.73 432.63,340.96 433.55,341.04 444.97,342.11 444.98,342.11 445.48,342.16 
			492.02,346.53 492.03,346.53 504.73,347.72 509.46,348.16 515.63,348.74 525.62,349.68 526.02,349.71 532.17,350.29 
			545.15,351.51 550.33,351.99 565.73,353.45 		"/>
		<polygon points="711.52,462.09 673.58,462.09 597.87,362.6 597.26,361.8 596.63,362.62 520.27,462.09 483.04,462.09 
			488.45,454.98 558.28,363.24 565.73,353.45 597.28,312 628.5,353.02 635.33,361.99 708.9,458.64 		"/>
		<polygon points="776.97,339.27 775.17,342.43 772.76,346.65 771.52,348.83 763.06,363.66 757.6,373.25 708.9,458.64 
			706.93,462.09 705.53,464.55 703.63,462.09 626.47,362.13 620.04,353.8 628.5,353.02 664.82,349.65 673.28,348.87 681.75,348.09 
			684.99,347.79 710.33,345.44 719.37,344.6 719.38,344.6 756.76,341.14 768.28,340.07 768.29,340.07 		"/>
		<polygon points="811.72,461.04 753.32,366.31 767.98,343.03 840,461.04 		"/>
		<g>
			<g>
				<g>
					<path d="M592.91,438.98c-2.01-0.01-4.01-0.02-6.02-0.02l-6.65,0.01c-1.61,0-3.21,0-4.82-0.01l-6.47-0.03l0-7.29
						c0.03-15.21,10.65-27.76,23.67-27.89l6.82-0.09l0.01,7.07c0.01,7.1,0.01,14.18,0,21.27l-0.01,7.03L592.91,438.98z"/>
				</g>
				<g>
					<path d="M615.02,438.99c-2.52-0.02-5.05-0.02-7.57-0.02l-9.91,0l-6.49-0.01l-0.01-14.74c0-4.48,0-8.96-0.01-13.44l-0.02-7.02
						h6.76c13.13,0.04,23.79,12.61,23.79,28.02v7.25L615.02,438.99z"/>
				</g>
				<g>
					<path d="M592.94,465.6c-2.66-0.01-5.33-0.02-7.99-0.02l-16.02,0.01l0.02-7.02c0.02-8.12,0.02-14.79,0-20.98l-0.03-7.04
						c0,0,13.27,0.03,15.74,0.03c2.75,0,5.51-0.01,8.26-0.03l6.52-0.05l0.02,7.02c0.01,3.35,0.01,6.69,0.01,10.03
						c0,3.67,0,7.34,0.01,11.02l0.03,7.06L592.94,465.6z"/>
				</g>
				<g>
					<path d="M614.97,465.63c-2.63-0.04-5.27-0.05-7.9-0.05c-2.21,0-4.43,0.01-6.65,0.02l-9.39,0.03l0.02-7.03c0.02-7,0.03-14,0-21
						l-0.03-7.03l15.86,0.02c2.72,0,5.45,0,8.17-0.02l6.56-0.04l-0.02,7.06c-0.01,3.09-0.01,6.18-0.01,9.26
						c0,3.94,0,7.89-0.01,11.83l-0.03,7.05L614.97,465.63z"/>
				</g>
				<g>
					<path class="st12" d="M592.68,410.74c0.09,0,0.18,0,0.27,0c0.01,7.09,0.01,14.17,0,21.25c-5.84-0.04-11.67,0.01-17.51-0.02
						c0-0.08,0-0.15,0-0.23C575.47,420.18,583.16,410.83,592.68,410.74z"/>
				</g>
				<g>
					<path class="st12" d="M597.54,410.75c0.08,0,0.16,0,0.24,0c9.56,0.03,17.29,9.43,17.29,21.03v0.21
						c-5.84-0.04-11.68-0.01-17.52-0.02C597.54,424.9,597.56,417.83,597.54,410.75z"/>
				</g>
				<g>
					<path class="st12" d="M575.44,437.56c5.84,0.01,11.68,0.03,17.52-0.01c0.02,7.02-0.01,14.04,0.02,21.06
						c-5.84-0.03-11.68-0.01-17.53-0.01C575.46,451.58,575.47,444.57,575.44,437.56z"/>
				</g>
				<g>
					<path class="st12" d="M597.53,437.56c5.85,0.01,11.69,0.02,17.54-0.01c-0.02,7.03,0.02,14.05-0.02,21.08
						c-5.84-0.09-11.67-0.04-17.52-0.02C597.55,451.59,597.56,444.58,597.53,437.56z"/>
				</g>
			</g>
		</g>
		<g>
			<g>
				<g>
					<path d="M763.33,441.28c-1.14-0.01-2.29-0.01-3.43-0.01l-3.77,0c-0.94,0-1.88,0-2.83-0.01l-6.47-0.04v-7.09
						c0.02-10.42,7.34-18.95,16.32-19.04l6.55-0.06l0.17,7.05c0.01,4.07,0.01,8.14,0,12.21l-0.01,7.03L763.33,441.28z"/>
				</g>
				<g>
					<path d="M776.01,441.28c-1.41-0.01-2.82-0.01-4.22-0.01l-5.78,0l-6.49-0.01l-0.01-11.61c0-2.51,0-5.02-0.01-7.53l-0.02-7.18
						l6.67,0.17c9.05,0.03,16.4,8.57,16.4,19.05v7.17L776.01,441.28z"/>
				</g>
				<g>
					<path d="M763.35,456.54c-1.48-0.01-2.95-0.01-4.43-0.01l-12.1,0l0.02-7.02c0.01-4,0.01-8,0-12l-0.03-7.04l11.82,0.02
						c1.57,0,3.14,0,4.71-0.01l6.52-0.05l0.02,7.02c0.01,1.92,0,3.84,0,5.76c0,2.1,0,4.21,0.01,6.31l0.03,7.06L763.35,456.54z"/>
				</g>
				<g>
					<path d="M775.96,456.56c-1.49-0.02-2.99-0.03-4.48-0.03c-1.26,0-11.99,0.04-11.99,0.04l0.01-7.03c0.01-4.01,0.01-8.01,0-12.02
						l-0.03-7.03l11.9,0.01c1.55,0,3.1,0,4.65-0.01l6.56-0.04l-0.02,7.06c-0.01,1.77,0,3.54,0,5.31c0,2.27,0,4.53-0.01,6.8
						l-0.03,7.05L775.96,456.56z"/>
				</g>
				<g>
					<path class="st12" d="M763.22,422.1c0.05,0,0.1,0,0.16,0c0.01,4.06,0.01,8.13,0,12.19c-3.35-0.02-6.69,0-10.04-0.01
						c0-0.04,0-0.09,0-0.13C753.35,427.51,757.76,422.15,763.22,422.1z"/>
				</g>
				<g>
					<path class="st12" d="M766,422.11c0.05,0,0.09,0,0.14,0c5.48,0.02,9.91,5.41,9.91,12.06v0.12c-3.35-0.02-6.7-0.01-10.05-0.01
						C766,430.22,766.01,426.17,766,422.11z"/>
				</g>
				<g>
					<path class="st12" d="M753.33,437.48c3.35,0.01,6.7,0.02,10.04-0.01c0.01,4.03-0.01,8.05,0.01,12.07
						c-3.35-0.02-6.7-0.01-10.05-0.01C753.34,445.52,753.35,441.5,753.33,437.48z"/>
				</g>
				<g>
					<path class="st12" d="M766,437.48c3.35,0,6.71,0.01,10.06-0.01c-0.01,4.03,0.01,8.06-0.01,12.09
						c-3.35-0.05-6.69-0.02-10.04-0.01C766.01,445.53,766.02,441.51,766,437.48z"/>
				</g>
			</g>
		</g>
		<g>
			<path d="M438.55,441.28c-1.14-0.01-2.29-0.01-3.43-0.01l-3.77,0c-0.94,0-1.88,0-2.82-0.01l-6.47-0.04v-7.09
				c0.02-10.42,7.34-18.95,16.32-19.04l6.55-0.06l0.17,7.05c0.01,4.07,0.01,8.14,0,12.21l-0.01,7.03L438.55,441.28z"/>
			<path d="M451.23,441.28c-1.41-0.01-2.82-0.01-4.22-0.01l-5.78,0l-6.49-0.01l-0.01-11.45c0-2.56,0-5.12-0.01-7.68l-0.02-7.18
				l6.67,0.16c9.05,0.03,16.4,8.57,16.4,19.05v7.17L451.23,441.28z"/>
			<path d="M438.58,456.54c-1.48-0.01-2.95-0.01-4.43-0.01l-12.1,0l0.02-7.02c0.01-4,0.01-8,0-12l-0.03-7.04l11.82,0.02
				c1.57,0,3.14,0,4.71-0.01l6.52-0.05l0.02,7.02c0.01,1.91,0,3.83,0,5.74c0,2.11,0,4.22,0.01,6.32l0.03,7.06L438.58,456.54z"/>
			<path d="M451.18,456.56c-1.49-0.02-2.99-0.03-4.48-0.03c-1.26,0-11.99,0.04-11.99,0.04l0.02-7.03c0.01-4.01,0.01-8.01,0-12.02
				l-0.03-7.03l11.9,0.01c1.55,0,3.1,0,4.65-0.01l6.56-0.04l-0.02,7.06c-0.01,1.75,0,3.5,0,5.25c0,2.29,0,4.57-0.01,6.86l-0.04,7.05
				L451.18,456.56z"/>
			<path class="st12" d="M438.44,422.1c0.05,0,0.1,0,0.16,0c0.01,4.06,0.01,8.13,0,12.19c-3.35-0.02-6.69,0-10.04-0.01
				c0-0.04,0-0.09,0-0.13C428.58,427.51,432.98,422.15,438.44,422.1z"/>
			<path class="st12" d="M441.23,422.11c0.05,0,0.09,0,0.14,0c5.48,0.02,9.91,5.41,9.91,12.06v0.12c-3.35-0.02-6.7-0.01-10.05-0.01
				C441.23,430.22,441.24,426.17,441.23,422.11z"/>
			<path class="st12" d="M428.56,437.48c3.35,0.01,6.7,0.02,10.04-0.01c0.01,4.03-0.01,8.05,0.01,12.07
				c-3.35-0.02-6.7-0.01-10.05-0.01C428.57,445.52,428.57,441.5,428.56,437.48z"/>
			<path class="st12" d="M441.23,437.48c3.35,0,6.71,0.01,10.06-0.01c-0.01,4.03,0.01,8.06-0.01,12.09
				c-3.35-0.05-6.69-0.02-10.04-0.01C441.24,445.53,441.24,441.51,441.23,437.48z"/>
		</g>
		<linearGradient id="SVGID_5_" gradientUnits="userSpaceOnUse" x1="406.4533" y1="455.9386" x2="406.4533" y2="353.4258">
			<stop  offset="0" style="stop-color:#818181"/>
			<stop  offset="1" style="stop-color:#FAFAFA"/>
		</linearGradient>
		<polygon class="st13" points="439.92,365.51 386.54,455.94 372.98,455.94 433.01,353.43 		"/>
		<linearGradient id="SVGID_6_" gradientUnits="userSpaceOnUse" x1="407.2335" y1="359.4083" x2="407.2335" y2="453.2822">
			<stop  offset="0" style="stop-color:#818181"/>
			<stop  offset="1" style="stop-color:#FAFAFA;stop-opacity:0"/>
		</linearGradient>
		<polygon class="st14" points="378.01,453.28 432.98,359.41 436.46,365.49 384.63,453.28 		"/>
		<linearGradient id="SVGID_7_" gradientUnits="userSpaceOnUse" x1="499.093" y1="448.3589" x2="499.093" y2="348.3841">
			<stop  offset="0" style="stop-color:#818181"/>
			<stop  offset="1" style="stop-color:#FAFAFA"/>
		</linearGradient>
		<polygon class="st15" points="549.76,374.75 549.76,374.73 561.22,360.04 549.76,358.96 544.59,358.48 436.96,348.38 
			492.34,448.36 549.74,374.75 		"/>
		<linearGradient id="SVGID_8_" gradientUnits="userSpaceOnUse" x1="498.9767" y1="351.5427" x2="498.9767" y2="442.9862">
			<stop  offset="0" style="stop-color:#818181"/>
			<stop  offset="1" style="stop-color:#FAFAFA;stop-opacity:0"/>
		</linearGradient>
		<polygon class="st16" points="442.15,351.54 544.25,361.12 549.43,361.6 555.81,362.2 547.16,373.28 492.8,442.99 		"/>
		<linearGradient id="SVGID_9_" gradientUnits="userSpaceOnUse" x1="597.2805" y1="455.0921" x2="597.2805" y2="323.0372">
			<stop  offset="0" style="stop-color:#818181"/>
			<stop  offset="1" style="stop-color:#FAFAFA"/>
		</linearGradient>
		<polygon class="st17" points="496.76,455.09 517.21,455.09 597.28,350.79 676.65,455.09 697.8,455.09 597.28,323.04 		"/>
		<linearGradient id="SVGID_10_" gradientUnits="userSpaceOnUse" x1="597.2803" y1="327.9035" x2="597.2803" y2="452.4356">
			<stop  offset="0" style="stop-color:#818181"/>
			<stop  offset="1" style="stop-color:#FAFAFA;stop-opacity:0"/>
		</linearGradient>
		<polygon class="st18" points="678.34,452.44 597.29,345.94 515.54,452.44 502.49,452.44 597.28,327.9 692.07,452.44 		"/>
		<linearGradient id="SVGID_11_" gradientUnits="userSpaceOnUse" x1="698.8373" y1="452.5687" x2="698.8373" y2="347.4296">
			<stop  offset="0" style="stop-color:#818181"/>
			<stop  offset="1" style="stop-color:#FAFAFA"/>
		</linearGradient>
		<polygon class="st19" points="632.98,359.63 704.73,452.57 764.69,347.43 		"/>
		<linearGradient id="SVGID_12_" gradientUnits="userSpaceOnUse" x1="698.9082" y1="350.588" x2="698.9082" y2="447.2247">
			<stop  offset="0" style="stop-color:#818181"/>
			<stop  offset="1" style="stop-color:#FAFAFA;stop-opacity:0"/>
		</linearGradient>
		<polygon class="st20" points="638.38,361.8 759.44,350.59 704.32,447.22 		"/>
		<linearGradient id="SVGID_13_" gradientUnits="userSpaceOnUse" x1="794.548" y1="454.044" x2="794.548" y2="355.6289">
			<stop  offset="0" style="stop-color:#818181"/>
			<stop  offset="1" style="stop-color:#FAFAFA"/>
		</linearGradient>
		<polygon class="st21" points="827.96,454.04 815.21,454.04 761.14,366.35 767.89,355.63 		"/>
		<linearGradient id="SVGID_14_" gradientUnits="userSpaceOnUse" x1="793.7452" y1="361.2948" x2="793.7452" y2="451.3875">
			<stop  offset="0" style="stop-color:#818181"/>
			<stop  offset="1" style="stop-color:#FAFAFA;stop-opacity:0"/>
		</linearGradient>
		<polygon class="st22" points="817.08,451.39 764.66,366.36 767.85,361.29 822.83,451.39 		"/>
	</g>
</g>
</svg>
